#!OML:ASF Y:\EmotionMaleHayes\Project 1\Capture day 1\Session 1\Male1.ASF
:FULLY-SPECIFIED
:DEGREES
276
root 12.7191 15.7046 -8.84544 32.3795 62.3803 -334.478
lowerback 26.2578 -0.805846 -5.68336
upperback 8.43044 -2.19804 -4.94444
thorax -5.13135 -0.78063 -1.53518
lowerneck -17.3116 7.46617 9.65235
upperneck 14.7913 8.67463 -5.07971
head 8.07039 4.18426 -2.17368
rclavicle -2.56432e-014 -1.13307e-014
rhumerus 25.1584 -53.0736 -14.0744
rradius 78.0494
rwrist -22.9047
rhand -30.6676 -23.2712
rfingers 7.12502
rthumb -3.96216 -53.2141
lclavicle -2.56432e-014 -1.13307e-014
lhumerus -11.8676 -60.0926 97.0531
lradius 76.504
lwrist -17.4112
lhand -32.7914 -54.0309
lfingers 7.12502
lthumb -6.01278 -24.1362
rfemur -12.4395 -2.22317 36.9061
rtibia 34.2247
rfoot -21.6451 3.58413
rtoes 42.6367
lfemur -6.11366 -1.9303 6.45859
ltibia 61.3993
lfoot -8.1065 0.0684315
ltoes -25.9988
277
root 12.9221 15.7158 -8.84864 30.2637 61.0155 -337.608
lowerback 26.0186 -0.485004 -4.78691
upperback 8.68704 -1.52718 -4.71652
thorax -4.76323 -0.468089 -1.99071
lowerneck -17.2301 7.54393 10.2272
upperneck 14.237 8.72532 -5.6512
head 7.92962 4.18501 -2.4527
rclavicle 4.68635e-014 -8.12035e-014
rhumerus 30.9563 -52.2477 -17.1203
rradius 77.557
rwrist -21.8038
rhand -30.6267 -22.4593
rfingers 7.12502
rthumb -3.92265 -52.4029
lclavicle 4.68635e-014 -8.12035e-014
lhumerus -11.56 -58.0943 95.4421
lradius 76.2611
lwrist -18.7104
lhand -36.386 -59.9096
lfingers 7.12502
lthumb -9.48226 -30.1429
rfemur -11.4994 -0.0901349 37.7507
rtibia 33.3568
rfoot -21.6731 3.91921
rtoes 42.786
lfemur -10.3155 -0.73604 7.26066
ltibia 64.3233
lfoot -9.09607 0.160155
ltoes -25.7619
278
root 13.1254 15.7326 -8.84566 28.4508 60.0152 -340.608
lowerback 25.6686 -0.376045 -3.763
upperback 8.87033 -1.10089 -4.3203
thorax -4.41107 -0.273238 -2.25956
lowerneck -16.3395 7.75333 10.7256
upperneck 13.3808 9.10802 -6.54796
head 7.59461 4.32637 -2.8066
rclavicle -5.20195e-014 -1.14301e-015
rhumerus 36.8 -50.6014 -19.8969
rradius 76.463
rwrist -21.0199
rhand -30.6132 -21.8866
rfingers 7.12502
rthumb -3.90965 -51.8305
lclavicle -5.20195e-014 -1.14301e-015
lhumerus -11.5042 -55.0933 94.067
lradius 75.7974
lwrist -20.1153
lhand -39.1223 -65.3049
lfingers 7.12502
lthumb -12.1216 -35.6761
rfemur -10.5096 1.91041 38.8718
rtibia 31.8763
rfoot -21.4588 4.0939
rtoes 42.9911
lfemur -14.9463 0.408513 8.2678
ltibia 66.8816
lfoot -10.5814 -0.742757
ltoes -23.2467
279
root 13.3536 15.7689 -8.83278 26.3949 58.8686 -343.632
lowerback 25.4368 -0.255021 -2.68978
upperback 9.19178 -0.649159 -3.95675
thorax -3.95371 -0.0545926 -2.59855
lowerneck -15.6754 7.91532 11.223
upperneck 12.5609 9.37257 -7.28604
head 7.29938 4.42654 -3.11603
rclavicle 4.9895e-014 -4.82053e-015
rhumerus 39.9285 -48.7785 -20.705
rradius 76.3463
rwrist -21.6414
rhand -30.9529 -21.8269
rfingers 7.12502
rthumb -4.23768 -51.7645
lclavicle 4.9895e-014 -4.82053e-015
lhumerus -11.2087 -51.9655 92.3191
lradius 75.0608
lwrist -21.0362
lhand -41.2375 -69.2213
lfingers 7.12502
lthumb -14.1605 -39.7239
rfemur -8.91399 3.74691 39.8802
rtibia 30.0514
rfoot -21.1816 4.29829
rtoes 42.7719
lfemur -19.1685 1.56245 9.04926
ltibia 68.8219
lfoot -12.2152 -1.08701
ltoes -19.4258
280
root 13.5907 15.8115 -8.7991 24.7383 57.7892 -346.223
lowerback 24.9535 -0.14382 -1.55564
upperback 9.72144 -0.187619 -3.84823
thorax -3.13202 0.19153 -3.24536
lowerneck -15.2903 7.98449 12.0495
upperneck 11.6421 9.37351 -7.86401
head 7.00622 4.42565 -3.44999
rclavicle -6.06293e-014 3.03644e-014
rhumerus 44.1423 -46.3779 -22.4855
rradius 74.8827
rwrist -21.2643
rhand -31.3571 -22.2264
rfingers 7.12502
rthumb -4.62792 -52.1559
lclavicle -6.06293e-014 3.03644e-014
lhumerus -10.5622 -48.9987 89.9795
lradius 74.0489
lwrist -20.7294
lhand -41.8841 -70.7704
lfingers 7.12502
lthumb -14.7835 -41.3177
rfemur -6.97619 5.18265 40.7489
rtibia 27.7332
rfoot -20.5872 4.86821
rtoes 43.0236
lfemur -23.5415 3.00489 9.61976
ltibia 70.5882
lfoot -12.1197 -1.48448
ltoes -25.8951
281
root 13.8261 15.8649 -8.75157 23.4852 56.8002 -348.33
lowerback 24.8957 0.149223 -0.806671
upperback 10.0725 0.384763 -3.62899
thorax -2.6897 0.489279 -3.58322
lowerneck -15.3436 8.06541 13.1455
upperneck 11.2414 9.34225 -8.66782
head 6.97795 4.39239 -3.88917
rclavicle -4.67144e-015 -2.50469e-014
rhumerus 46.4481 -44.3587 -22.4448
rradius 73.326
rwrist -21.7438
rhand -30.8263 -22.6136
rfingers 7.12502
rthumb -4.11541 -52.5536
lclavicle -4.67144e-015 -2.50469e-014
lhumerus -10.399 -45.8295 88.2647
lradius 73.1919
lwrist -19.7373
lhand -41.1043 -69.8708
lfingers 7.12502
lthumb -14.0321 -40.3644
rfemur -4.83813 5.99131 41.3796
rtibia 25.007
rfoot -19.4762 5.93884
rtoes 43.4926
lfemur -27.6932 3.95011 9.788
ltibia 71.3582
lfoot -12.5399 -1.51945
ltoes -30.7578
282
root 14.0596 15.9233 -8.70325 22.6596 55.9047 -350.361
lowerback 24.6948 0.250935 -0.36521
upperback 10.1545 0.626811 -3.06505
thorax -2.49507 0.597659 -3.27876
lowerneck -14.903 8.29117 13.3933
upperneck 10.7393 9.76009 -9.5299
head 6.84937 4.54722 -4.17075
rclavicle 1.31198e-014 1.13307e-014
rhumerus 51.5465 -40.3826 -25.3224
rradius 70.7537
rwrist -19.8324
rhand -29.909 -22.5883
rfingers 7.12502
rthumb -3.22955 -52.5436
lclavicle 1.31198e-014 1.13307e-014
lhumerus -10.8256 -41.5386 87.2566
lradius 72.3436
lwrist -18.0012
lhand -39.5331 -66.4472
lfingers 7.12502
lthumb -12.5176 -36.8421
rfemur -3.16604 6.37436 41.8886
rtibia 22.3896
rfoot -17.9166 7.31478
rtoes 43.2961
lfemur -32.317 5.10856 9.82888
ltibia 71.8377
lfoot -13.2635 -1.42779
ltoes -31.7502
283
root 14.2832 15.9931 -8.66101 22.1811 55.2406 -352.346
lowerback 24.592 0.271076 0.367949
upperback 10.0457 0.804161 -2.66656
thorax -2.55435 0.679416 -3.31083
lowerneck -14.5712 8.43191 13.9
upperneck 10.261 9.95281 -10.1398
head 6.72388 4.62416 -4.43606
rclavicle 5.96354e-015 -7.65321e-014
rhumerus 55.154 -36.2867 -27.3385
rradius 68.2574
rwrist -17.9254
rhand -29.0955 -22.9927
rfingers 7.12502
rthumb -2.44396 -52.9584
lclavicle 5.96354e-015 -7.65321e-014
lhumerus -11.3049 -37.5652 85.9742
lradius 71.4082
lwrist -15.7479
lhand -37.9536 -61.9106
lfingers 7.12502
lthumb -10.9945 -32.2185
rfemur -2.05222 6.26001 42.2832
rtibia 19.9855
rfoot -15.8383 9.02047
rtoes 43.6855
lfemur -37.4873 6.241 9.69964
ltibia 72.1282
lfoot -13.8491 -0.858613
ltoes -36.0188
284
root 14.5222 16.0866 -8.61811 21.2831 54.3233 -354.809
lowerback 24.6036 0.372168 1.52618
upperback 9.97419 1.17181 -2.45133
thorax -2.5963 0.870586 -3.83829
lowerneck -14.6266 8.52321 14.3817
upperneck 9.96168 9.98913 -10.4004
head 6.68143 4.64005 -4.59132
rclavicle -7.7526e-015 4.09496e-014
rhumerus 58.844 -32.2569 -29.3845
rradius 65.0278
rwrist -15.7901
rhand -27.8139 -23.3647
rfingers 7.12502
rthumb -1.20614 -53.341
lclavicle -7.7526e-015 4.09496e-014
lhumerus -11.6326 -33.4037 84.5206
lradius 70.4734
lwrist -13.7858
lhand -36.1874 -57.6025
lfingers 7.12502
lthumb -9.29065 -27.8272
rfemur -0.998502 5.65731 42.646
rtibia 17.679
rfoot -13.1778 11.0394
rtoes 44.2161
lfemur -42.2532 7.51818 9.59762
ltibia 71.9449
lfoot -14.0657 -0.0582949
ltoes -36.4748
285
root 14.7852 16.1992 -8.5666 20.1184 53.081 -357.526
lowerback 24.574 0.625105 2.9494
upperback 10.0506 1.79395 -2.33256
thorax -2.40061 1.20569 -4.68335
lowerneck -14.9448 8.5812 14.6292
upperneck 9.58453 9.95441 -10.444
head 6.62397 4.62094 -4.64031
rclavicle -4.63168e-014 5.86415e-014
rhumerus 60.9691 -28.8723 -30.4555
rradius 62.4825
rwrist -14.4821
rhand -26.4204 -23.8815
rfingers 7.12502
rthumb 0.139708 -53.8612
lclavicle -4.63168e-014 5.86415e-014
lhumerus -11.2541 -30.5125 82.3847
lradius 68.7434
lwrist -11.1567
lhand -35.3362 -54.8968
lfingers 7.12502
lthumb -8.46919 -25.0866
rfemur 0.0300004 4.58341 42.8578
rtibia 15.6487
rfoot -10.257 13.8304
rtoes 43.8957
lfemur -46.1394 8.45846 9.64164
ltibia 70.4208
lfoot -14.6637 0.769863
ltoes -35.9594
286
root 15.0218 16.3076 -8.51223 20.1084 52.1422 -359.351
lowerback 24.3637 0.871364 4.024
upperback 9.9381 2.31139 -2.31425
thorax -2.31632 1.47555 -5.40539
lowerneck -15.2075 8.50227 14.9094
upperneck 9.24002 9.76768 -10.7051
head 6.5622 4.51525 -4.78907
rclavicle 2.78299e-014 6.52014e-014
rhumerus 62.6225 -25.7538 -31.1734
rradius 59.8127
rwrist -13.3378
rhand -24.8888 -24.3855
rfingers 7.12502
rthumb 1.61898 -54.3591
lclavicle 2.78299e-014 6.52014e-014
lhumerus -10.9041 -27.5632 80.3046
lradius 66.6178
lwrist -8.73354
lhand -34.4629 -53.693
lfingers 7.12502
lthumb -7.62638 -23.8505
rfemur 0.228547 3.4623 42.7338
rtibia 14.2094
rfoot -6.93029 16.0475
rtoes 44.3202
lfemur -50.6194 8.97185 9.39343
ltibia 68.6215
lfoot -15.1214 0.841302
ltoes -28.6769
287
root 15.2949 16.4189 -8.4417 20.0204 50.4531 -360.951
lowerback 24.4197 1.50731 4.44565
upperback 9.75393 3.18762 -2.23239
thorax -2.41504 1.89314 -5.78314
lowerneck -15.5296 8.32373 14.913
upperneck 9.15443 9.4879 -10.8086
head 6.55744 4.36408 -4.8535
rclavicle 1.70955e-014 2.82274e-014
rhumerus 65.8996 -22.475 -31.62
rradius 55.3336
rwrist -12.3877
rhand -22.6894 -24.8877
rfingers 7.12502
rthumb 3.74305 -54.8346
lclavicle 1.70955e-014 2.82274e-014
lhumerus -10.8468 -24.5249 78.6131
lradius 64.1539
lwrist -6.60958
lhand -35.6856 -54.7136
lfingers 7.12502
lthumb -8.8064 -24.9173
rfemur 0.910082 1.9912 41.9674
rtibia 12.7384
rfoot -2.44807 18.3165
rtoes 45.2587
lfemur -53.9884 9.98406 8.33833
ltibia 66.4224
lfoot -15.8455 3.13408
ltoes -34.2277
288
root 15.5672 16.5288 -8.35615 20.1589 48.7187 -362.394
lowerback 24.3912 2.1931 4.65265
upperback 9.52251 4.07413 -2.19559
thorax -2.52428 2.30777 -6.08458
lowerneck -15.9165 8.19376 14.8218
upperneck 9.12033 9.25887 -10.7057
head 6.57003 4.24717 -4.82612
rclavicle 8.34896e-015 -8.94531e-014
rhumerus 70.4697 -20.0462 -30.4591
rradius 49.259
rwrist -13.758
rhand -20.4004 -26.2524
rfingers 7.12502
rthumb 5.95328 -56.1488
lclavicle 8.34896e-015 -8.94531e-014
lhumerus -10.8307 -22.1183 76.7835
lradius 61.7765
lwrist -3.508
lhand -37.397 -54.9704
lfingers 7.12502
lthumb -10.4576 -25.2505
rfemur 1.34436 -0.296935 40.9751
rtibia 10.8649
rfoot 4.34761 20.0237
rtoes 47.6057
lfemur -57.1036 10.862 7.42512
ltibia 63.6525
lfoot -15.6261 3.50067
ltoes -30.119
289
root 15.842 16.6394 -8.26024 20.525 47.1815 -363.444
lowerback 24.4607 2.79127 4.72007
upperback 9.28385 4.82269 -2.23546
thorax -2.70661 2.65123 -6.36382
lowerneck -16.5987 8.06997 14.7655
upperneck 9.37169 8.98998 -10.502
head 6.71403 4.11205 -4.76946
rclavicle -2.50469e-014 5.48646e-014
rhumerus 73.3128 -18.4262 -27.3558
rradius 44.6241
rwrist -17.6457
rhand -19.9872 -28.301
rfingers 7.12502
rthumb 6.35218 -58.1858
lclavicle -2.50469e-014 5.48646e-014
lhumerus -10.7177 -19.7948 74.7116
lradius 58.9054
lwrist 0.316338
lhand -38.0937 -55.8278
lfingers 7.12502
lthumb -11.1296 -26.143
rfemur 1.51409 -3.63628 39.6717
rtibia 8.82893
rfoot 13.6476 19.6695
rtoes 52.2101
lfemur -59.5344 11.1458 6.50864
ltibia 59.8328
lfoot -14.5624 3.17379
ltoes -27.8458
290
root 16.1263 16.7395 -8.15558 21.0808 45.7501 -364.214
lowerback 24.4886 3.39719 4.51733
upperback 9.01046 5.52474 -2.18153
thorax -2.94882 2.95976 -6.37543
lowerneck -17.088 7.97334 14.5792
upperneck 9.61364 8.83858 -10.4514
head 6.84187 4.02301 -4.7331
rclavicle 1.51076e-014 -2.62396e-014
rhumerus 73.4335 -14.651 -29.0815
rradius 42.886
rwrist -16.7809
rhand -17.9196 -27.6323
rfingers 7.12502
rthumb 8.34795 -57.4474
lclavicle 1.51076e-014 -2.62396e-014
lhumerus -10.8011 -16.7165 72.7722
lradius 56.2226
lwrist 2.01018
lhand -38.6681 -56.6386
lfingers 7.12502
lthumb -11.6836 -26.9844
rfemur 1.92793 -4.71754 38.2329
rtibia 10.2227
rfoot 14.4978 20.5007
rtoes 49.14
lfemur -61.5891 11.878 5.00613
ltibia 55.6421
lfoot -12.7315 1.56263
ltoes -30.8099
